<svg width="101" height="101" viewBox="0 0 101 101" fill="none" xmlns="http://www.w3.org/2000/svg">
<rect x="0.5" y="0.448242" width="100" height="100" rx="22" fill="#283624"/>
<path d="M42.8301 56.835H58.2109C58.5527 56.835 58.8398 56.7256 59.0723 56.5068C59.3047 56.2744 59.4209 55.9941 59.4209 55.666C59.4209 55.3379 59.3047 55.0645 59.0723 54.8457C58.8398 54.6133 58.5527 54.4971 58.2109 54.4971H42.8301C42.4883 54.4971 42.2012 54.6133 41.9688 54.8457C41.75 55.0645 41.6406 55.3379 41.6406 55.666C41.6406 55.9941 41.75 56.2744 41.9688 56.5068C42.2012 56.7256 42.4883 56.835 42.8301 56.835ZM42.8301 64.0947H58.2109C58.5527 64.0947 58.8398 63.9854 59.0723 63.7666C59.3047 63.5479 59.4209 63.2744 59.4209 62.9463C59.4209 62.6182 59.3047 62.3447 59.0723 62.126C58.8398 61.8936 58.5527 61.7773 58.2109 61.7773H42.8301C42.4883 61.7773 42.2012 61.8936 41.9688 62.126C41.75 62.3447 41.6406 62.6182 41.6406 62.9463C41.6406 63.2744 41.75 63.5479 41.9688 63.7666C42.2012 63.9854 42.4883 64.0947 42.8301 64.0947ZM40.1641 72.1953C38.2227 72.1953 36.7598 71.6963 35.7754 70.6982C34.791 69.7139 34.2988 68.2373 34.2988 66.2686V36.6553C34.2988 34.6865 34.791 33.21 35.7754 32.2256C36.7598 31.2275 38.2227 30.7285 40.1641 30.7285H49.1875V44.8584C49.1875 47.21 50.3701 48.3857 52.7354 48.3857H66.6807V66.2686C66.6807 68.2373 66.1885 69.7139 65.2041 70.6982C64.2334 71.6963 62.7705 72.1953 60.8154 72.1953H40.1641ZM52.7969 45.9043C52.0449 45.9043 51.6689 45.5352 51.6689 44.7969V30.9541C52.0518 31.0088 52.4277 31.166 52.7969 31.4258C53.1797 31.6855 53.5762 32.0273 53.9863 32.4512L64.958 43.5869C65.3818 44.0107 65.7236 44.4141 65.9834 44.7969C66.2432 45.166 66.3936 45.5352 66.4346 45.9043H52.7969Z" fill="#82C967"/>
</svg>
