<svg width="79" height="64" viewBox="0 0 79 64" fill="none" xmlns="http://www.w3.org/2000/svg">
<path d="M35 32.4737L42.8947 43L60 18" stroke="#969799" stroke-width="2.8" stroke-linecap="round" stroke-linejoin="round"/>
<path fill-rule="evenodd" clip-rule="evenodd" d="M64 3.44824H28C28 3.44824 28.5143 0.448242 30.0571 0.448242C31.6 0.448242 59.8857 0.448242 61.9429 0.448242C64 0.448242 64 3.44824 64 3.44824Z" fill="#969799"/>
<path fill-rule="evenodd" clip-rule="evenodd" d="M13.5 63.4482C20.9558 63.4482 27 57.4041 27 49.9482C27 42.4924 20.9558 36.4482 13.5 36.4482C6.04416 36.4482 0 42.4924 0 49.9482C0 57.4041 6.04416 63.4482 13.5 63.4482ZM14.4 43.4917C14.4 42.9947 13.9971 42.5917 13.5 42.5917C13.0029 42.5917 12.6 42.9947 12.6 43.4917V49.0482H7.04348C6.54642 49.0482 6.14348 49.4512 6.14348 49.9482C6.14348 50.4453 6.54642 50.8482 7.04348 50.8482H12.6V56.4048C12.6 56.9018 13.0029 57.3048 13.5 57.3048C13.9971 57.3048 14.4 56.9018 14.4 56.4048V50.8482H19.9565C20.4536 50.8482 20.8565 50.4453 20.8565 49.9482C20.8565 49.4512 20.4536 49.0482 19.9565 49.0482H14.4V43.4917Z" fill="#E0E0E3"/>
<path fill-rule="evenodd" clip-rule="evenodd" d="M18 7.94824H73C74.933 7.94824 76.5 9.51525 76.5 11.4482V51.4482C76.5 53.3812 74.933 54.9482 73 54.9482H28.0154C27.6874 55.8218 27.2828 56.6578 26.8097 57.4482H73C76.3137 57.4482 79 54.762 79 51.4482V11.4482C79 8.13453 76.3137 5.44824 73 5.44824H18C14.6863 5.44824 12 8.13453 12 11.4482V34.0716C12.4936 34.0243 12.994 34 13.5 34C13.8359 34 14.1694 34.0107 14.5 34.0317V11.4482C14.5 9.51525 16.067 7.94824 18 7.94824Z" fill="#969799"/>
</svg>
