<svg width="819" height="205" viewBox="0 0 819 205" fill="none" xmlns="http://www.w3.org/2000/svg">
<path d="M233.877 62C233.877 62 253 50 255 49C257 48 261.877 48.5 261.877 53C261.877 57.5 261.877 62 261.877 62C271.344 52 282.41 47 295.077 47C305.877 47 314.344 50.1334 320.477 56.4C326.61 62.6667 329.677 70.7334 329.677 80.6V149H301.677V88.8C301.677 82.9333 300.277 78.5334 297.477 75.6C294.81 72.5334 290.81 71 285.477 71C280.81 71 276.344 72.4667 272.077 75.4C267.81 78.2 264.41 81.7334 261.877 86V149H233.877V62Z" fill="black"/>
<path d="M395.804 151C385.937 151 377.07 148.867 369.204 144.6C361.47 140.2 355.404 134.067 351.004 126.2C346.604 118.333 344.404 109.267 344.404 99C344.404 88.8667 346.737 79.8667 351.404 72C356.204 64.1334 362.537 58 370.404 53.6C378.27 49.2 386.737 47 395.804 47C405.67 47 414.404 49.0667 422.004 53.2C429.604 57.3334 435.47 63.2667 439.604 71C443.87 78.7334 446.004 87.8667 446.004 98.4V105.8H370.804C371.47 112.733 374.07 118.267 378.604 122.4C383.27 126.4 389.204 128.4 396.404 128.4C407.87 128.4 415.47 123.267 419.204 113L442.604 115.4L444.004 117.8C440.27 128.867 434.27 137.2 426.004 142.8C417.87 148.267 407.804 151 395.804 151ZM419.604 87.8C418.937 81.8 416.404 77 412.004 73.4C407.604 69.8 402.137 68 395.604 68C389.737 68 384.537 69.8 380.004 73.4C375.604 77 372.804 81.8 371.604 87.8H419.604Z" fill="black"/>
<path d="M508.038 151C498.305 151 489.438 148.8 481.438 144.4C473.571 140 467.305 133.867 462.638 126C457.971 118 455.638 109 455.638 99C455.638 89 457.971 80.0667 462.638 72.2C467.305 64.2 473.571 58 481.438 53.6C489.438 49.2 498.305 47 508.038 47C521.238 47 532.105 50.3334 540.638 57C549.305 63.6667 554.771 72.7334 557.038 84.2L555.438 86.2L532.238 88.6C530.905 83.2667 528.171 79.0667 524.038 76C519.905 72.8 514.571 71.2 508.038 71.2C500.705 71.2 494.638 73.6667 489.838 78.6C485.171 83.4 482.838 90.2 482.838 99C482.838 107.8 485.171 114.667 489.838 119.6C494.638 124.4 500.705 126.8 508.038 126.8C514.571 126.8 519.771 125.333 523.638 122.4C527.505 119.467 530.371 115.133 532.238 109.4L555.438 111.8L557.038 113.6C553.971 125.6 548.238 134.867 539.838 141.4C531.438 147.8 520.838 151 508.038 151Z" fill="black"/>
<path d="M609.143 151C599.809 151 592.409 148.467 586.943 143.4C581.476 138.333 578.743 130.733 578.743 120.6V72.2H560.943V49H578.743V20.4H582.343L606.543 28.8V49H627.743V72.2H606.543V118.2C606.543 121.4 607.476 123.867 609.343 125.6C611.209 127.333 613.876 128.2 617.343 128.2C619.476 128.2 622.143 127.733 625.343 126.8L626.743 127.6V149C621.009 150.333 615.143 151 609.143 151Z" fill="black"/>
<path d="M670.463 151C664.73 151 659.396 149.8 654.463 147.4C649.663 144.867 645.796 141.333 642.863 136.8C640.063 132.133 638.663 126.733 638.663 120.6C638.663 111.533 641.796 104.267 648.063 98.8C654.33 93.2 662.93 89.8667 673.863 88.8L700.863 86V81.6C700.863 77.0667 699.396 73.5334 696.463 71C693.663 68.4667 689.663 67.2 684.463 67.2C679.796 67.2 676.063 68.4667 673.263 71C670.463 73.4 668.73 76.7334 668.063 81L644.463 79L643.463 77.8C645.463 67.8 650.196 60.2 657.663 55C665.13 49.6667 674.196 47 684.863 47C697.53 47 707.796 50.2 715.663 56.6C723.53 62.8667 727.463 71.7334 727.463 83.2V119C727.463 122.067 728.063 124.4 729.263 126C730.596 127.6 732.396 128.4 734.663 128.4C736.13 128.4 737.396 128.2 738.463 127.8L739.463 129V148.2C735.463 149.533 730.863 150.2 725.663 150.2C714.863 150.2 707.396 145.667 703.263 136.6H701.863C697.196 141.4 692.396 145 687.463 147.4C682.53 149.8 676.863 151 670.463 151ZM676.863 129.8C681.663 129.8 685.863 128.6 689.463 126.2C693.196 123.8 696.996 120.133 700.863 115.2V103.6L678.863 106.4C674.196 106.933 670.596 108.333 668.063 110.6C665.663 112.867 664.463 115.667 664.463 119C664.463 122.333 665.596 125 667.863 127C670.263 128.867 673.263 129.8 676.863 129.8Z" fill="black"/>
<path d="M753.525 49H781.525V61C785.125 56.7334 789.259 53.3334 793.925 50.8C798.592 48.2667 803.725 47 809.325 47C813.325 47 816.525 47.5333 818.925 48.6L815.325 70.6L813.925 72C811.259 71.3334 808.992 71 807.125 71C801.659 71 796.725 72.5334 792.325 75.6C787.925 78.6667 784.325 83.1334 781.525 89V149H753.525V49Z" fill="black"/>
<path d="M105.514 20.306L176.22 61.5493L176.585 143.405L106.242 184.017L35.536 142.773" stroke="url(#paint0_linear_94_93)" stroke-width="32" stroke-linecap="round" stroke-linejoin="round"/>
<path d="M35.171 143.405L35.5355 61.5492L106.242 20.3059L176.584 60.9179L176.22 142.773" stroke="url(#paint1_linear_94_93)" stroke-width="32" stroke-linecap="round" stroke-linejoin="round"/>
<defs>
<linearGradient id="paint0_linear_94_93" x1="176.22" y1="61.5493" x2="35.536" y2="142.773" gradientUnits="userSpaceOnUse">
<stop stop-color="#FF418E"/>
<stop offset="1" stop-color="#FF9507"/>
</linearGradient>
<linearGradient id="paint1_linear_94_93" x1="35.5355" y1="61.5492" x2="176.22" y2="142.773" gradientUnits="userSpaceOnUse">
<stop stop-color="#FF418E"/>
<stop offset="1" stop-color="#FF9507"/>
</linearGradient>
</defs>
</svg>
