<svg width="66" height="65" viewBox="0 0 66 65" fill="none" xmlns="http://www.w3.org/2000/svg">
<path d="M10.5788 12.5C12.0788 8 16.0781 7 18.0781 7C20.0781 7 45.5788 7 47.5788 7C49.5788 7 53.0788 9.5 54.0788 12C55.0788 14.5 63.5781 35 64.5781 37.5C65.5781 40 63.2069 43 59.7475 43C55.8467 43 51.1987 43 49.0788 43C45.0788 43 43.0788 51 39.5788 51C36.0788 51 30.0788 51 26.0788 51C22.0788 51 20.0788 43 16.0788 43C12.0788 43 6.57716 43 4.57716 43C2.57716 43 0.0253885 40.5389 1.37978 37C4.42753 29.0365 9.5403 15.6155 10.5788 12.5Z" stroke="#E0E0E3" stroke-width="2"/>
<path d="M14.0205 14.8386C15.2073 11.4272 18.3695 10.65 19.9882 10.65H32.9334H45.8787C46.5528 10.65 47.6228 11.0815 48.6807 11.8418C49.725 12.5922 50.6085 13.5569 50.9834 14.455C51.4237 15.5098 53.5073 20.3435 55.5883 25.1713L55.5935 25.1834C57.6792 30.022 59.7609 34.8516 60.1978 35.8981C60.5196 36.669 60.3232 37.5664 59.6586 38.318C58.996 39.0673 57.8963 39.6227 56.5582 39.6227H56.5381H56.5181H56.498H56.4778H56.4577H56.4376H56.4174H56.3973H56.3771H56.3569H56.3367H56.3164H56.2962H56.276H56.2557H56.2354H56.2151H56.1948H56.1745H56.1542H56.1338H56.1135H56.0931H56.0728H56.0524H56.032H56.0115H55.9911H55.9707H55.9502H55.9298H55.9093H55.8888H55.8683H55.8478H55.8273H55.8068H55.7863H55.7657H55.7452H55.7246H55.7041H55.6835H55.6629H55.6423H55.6217H55.6011H55.5804H55.5598H55.5392H55.5185H55.4978H55.4772H55.4565H55.4358H55.4151H55.3944H55.3737H55.353H55.3322H55.3115H55.2908H55.27H55.2493H55.2285H55.2078H55.187H55.1662H55.1454H55.1246H55.1038H55.083H55.0622H55.0414H55.0206H54.9997H54.9789H54.9581H54.9372H54.9164H54.8955H54.8747H54.8538H54.833H54.8121H54.7912H54.7703H54.7495H54.7286H54.7077H54.6868H54.6659H54.645H54.6241H54.6032H54.5823H54.5614H54.5405H54.5196H54.4986H54.4777H54.4568H54.4359H54.415H54.394H54.3731H54.3522H54.3312H54.3103H54.2894H54.2684H54.2475H54.2266H54.2056H54.1847H54.1638H54.1428H54.1219H54.101H54.08H54.0591H54.0382H54.0172H53.9963H53.9754H53.9544H53.9335H53.9126H53.8916H53.8707H53.8498H53.8289H53.808H53.787H53.7661H53.7452H53.7243H53.7034H53.6825H53.6616H53.6407H53.6198H53.5989H53.578H53.5571H53.5362H53.5154H53.4945H53.4736H53.4527H53.4319H53.411H53.3902H53.3693H53.3485H53.3276H53.3068H53.286H53.2651H53.2443H53.2235H53.2027H53.1819H53.1611H53.1403H53.1195H53.0988H53.078H53.0572H53.0365H53.0157H52.995H52.9742H52.9535H52.9328H52.9121H52.8914H52.8707H52.85H52.8293H52.8086H52.7879H52.7673H52.7466H52.726H52.7054H52.6847H52.6641H52.6435H52.6229H52.6023H52.5818H52.5612H52.5406H52.5201H52.4996H52.479H52.4585H52.438H52.4175H52.397H52.3765H52.3561H52.3356H52.3152H52.2948H52.2743H52.2539H52.2335H52.2132H52.1928H52.1724H52.1521H52.1317H52.1114H52.0911H52.0708H52.0505H52.0303H52.01H51.9897H51.9695H51.9493H51.9291H51.9089H51.8887H51.8686H51.8484H51.8283H51.8082H51.7881H51.768H51.7479H51.7278H51.7078H51.6878H51.6677H51.6477H51.6278H51.6078H51.5878H51.5679H51.548H51.5281H51.5082H51.4883H51.4685H51.4486H51.4288H51.409H51.3892H51.3694H51.3497H51.33H51.3102H51.2905H51.2709H51.2512H51.2315H51.2119H51.1923H51.1727H51.1531H51.1336H51.1141H51.0945H51.0751H51.0556H51.0361H51.0167H50.9973H50.9779H50.9585H50.9391H50.9198H50.9005H50.8812H50.8619H50.8426H50.8234H50.8042H50.785H50.7658H50.7467H50.7276H50.7084H50.6894H50.6703H50.6513H50.6322H50.6132H50.5943H50.5753H50.5564H50.5375H50.5186H50.4997H50.4809H50.4621H50.4433H50.4245H50.4058H50.3871H50.3684H50.3497H50.331H50.3124H50.2938H50.2752H50.2567H50.2382H50.2197H50.2012H50.1827H50.1643H50.1459H50.1275H50.1092H50.0909H50.0726H50.0543H50.0361H50.0178H49.9997H49.9815H49.9634H49.9452H49.9272H49.9091H49.8911H49.8731H49.8551H49.8372H49.8192H49.8013H49.7835H49.7656H49.7478H49.7301H49.7123H49.6946H49.6769H49.6592H49.6416H49.624H49.6064H49.5889H49.5714H49.5539H49.5364H49.519H49.5016H49.4842H49.4669H49.4496H49.4323H49.4151H49.3979H49.3807H49.3635H49.3464H49.3293H49.3123H49.2952H49.2782H49.2613H49.2443H49.2274H49.2106H49.1937H49.1769H49.1602H49.1434H49.1267H49.1101H49.0934H49.0768H49.0603H49.0437H49.0272H49.0108H48.9943H48.9779H48.9616H48.9452H48.9289H48.9127H48.8964H48.8802H48.8641H48.848H48.8319H48.8158H48.7998H48.7838H48.7679H48.752H48.7361H48.7203H48.7045H48.6887H48.673H48.6573H48.6416H48.626H48.6104H48.5949H48.5794H48.5639H48.5485H48.5331H48.5177H48.5024H48.4871H48.4719H48.4567H48.4415H48.4264H48.4113H48.3963H48.3812H48.3663H48.3513H48.3364H48.3216H48.3068H48.292H48.2773H48.2626H48.2479H48.2333H48.2187H48.2042H48.1897H48.1753H48.1609H48.1465H48.1322H48.1179H48.1036H48.0894H48.0753H48.0611H48.0471H48.033H48.019H48.0051H47.9912H47.9773H47.9635H47.9497H47.936H47.9223H47.9086H47.895H47.8814H47.8679H47.8544H47.841H47.8276H47.8143H47.801H47.7877H47.7745H47.7613H47.7482H47.7351H47.7221H47.7091H47.6962H47.6833H47.6704H47.6576H47.6448H47.6321H47.6195H47.6068H47.5943H47.5817H47.5692H47.5568H47.5444H47.5321H47.5198H47.5075H47.4953H47.4832H47.4711H47.459H47.447H47.435H47.4231H47.4112H47.3994H47.3877H47.3759H47.3643H47.3526H47.3411H47.3295H47.3181H47.3066H47.2952H47.2839H47.2726H47.2614H47.2502H47.2391H47.228H47.217H47.206H47.1951C46.0941 39.6227 45.1777 40.1538 44.4104 40.8391C43.6483 41.5196 42.9671 42.4128 42.3419 43.2463C42.303 43.2981 42.2643 43.3497 42.2259 43.401C41.6277 44.1993 41.0795 44.9309 40.5104 45.4819C39.9044 46.0687 39.3746 46.35 38.8577 46.35H38.8396H38.8216H38.8035H38.7853H38.7671H38.7488H38.7305H38.7121H38.6937H38.6752H38.6567H38.6381H38.6195H38.6009H38.5821H38.5634H38.5446H38.5257H38.5068H38.4879H38.4689H38.4499H38.4308H38.4117H38.3925H38.3733H38.354H38.3347H38.3153H38.2959H38.2765H38.257H38.2374H38.2179H38.1982H38.1786H38.1589H38.1391H38.1193H38.0995H38.0796H38.0596H38.0397H38.0196H37.9996H37.9795H37.9593H37.9392H37.9189H37.8987H37.8784H37.858H37.8376H37.8172H37.7967H37.7762H37.7556H37.7351H37.7144H37.6937H37.673H37.6523H37.6315H37.6107H37.5898H37.5689H37.5479H37.5269H37.5059H37.4849H37.4638H37.4426H37.4214H37.4002H37.379H37.3577H37.3364H37.315H37.2936H37.2722H37.2507H37.2292H37.2077H37.1861H37.1645H37.1428H37.1212H37.0994H37.0777H37.0559H37.0341H37.0122H36.9903H36.9684H36.9465H36.9245H36.9025H36.8804H36.8583H36.8362H36.814H36.7919H36.7696H36.7474H36.7251H36.7028H36.6804H36.6581H36.6357H36.6132H36.5908H36.5683H36.5457H36.5232H36.5006H36.4779H36.4553H36.4326H36.4099H36.3872H36.3644H36.3416H36.3188H36.2959H36.273H36.2501H36.2272H36.2042H36.1812H36.1582H36.1352H36.1121H36.089H36.0659H36.0427H36.0195H35.9963H35.9731H35.9498H35.9265H35.9032H35.8799H35.8565H35.8331H35.8097H35.7863H35.7628H35.7393H35.7158H35.6923H35.6687H35.6452H35.6216H35.5979H35.5743H35.5506H35.5269H35.5032H35.4795H35.4557H35.4319H35.4081H35.3843H35.3604H35.3366H35.3127H35.2888H35.2648H35.2409H35.2169H35.1929H35.1689H35.1449H35.1208H35.0967H35.0726H35.0485H35.0244H35.0002H34.9761H34.9519H34.9277H34.9035H34.8792H34.855H34.8307H34.8064H34.7821H34.7578H34.7334H34.7091H34.6847H34.6603H34.6359H34.6114H34.587H34.5625H34.5381H34.5136H34.4891H34.4646H34.44H34.4155H34.3909H34.3663H34.3418H34.3172H34.2925H34.2679H34.2433H34.2186H34.1939H34.1692H34.1445H34.1198H34.0951H34.0704H34.0456H34.0209H33.9961H33.9713H33.9465H33.9217H33.8969H33.8721H33.8473H33.8224H33.7976H33.7727H33.7478H33.723H33.6981H33.6732H33.6483H33.6233H33.5984H33.5735H33.5485H33.5236H33.4986H33.4736H33.4487H33.4237H33.3987H33.3737H33.3487H33.3237H33.2986H33.2736H33.2486H33.2235H33.1985H33.1735H33.1484H33.1233H33.0983H33.0732H33.0481H33.023H32.998H32.9729H32.9478H32.9227H32.8976H32.8725H32.8474H32.8222H32.7971H32.772H32.7469H32.7218H32.6966H32.6715H32.6464H32.6213H32.5961H32.571H32.5459H32.5207H32.4956H32.4704H32.4453H32.4202H32.395H32.3699H32.3447H32.3196H32.2945H32.2693H32.2442H32.219H32.1939H32.1688H32.1436H32.1185H32.0934H32.0683H32.0431H32.018H31.9929H31.9678H31.9427H31.9175H31.8924H31.8673H31.8422H31.8171H31.792H31.7669H31.7419H31.7168H31.6917H31.6666H31.6416H31.6165H31.5915H31.5664H31.5414H31.5163H31.4913H31.4663H31.4412H31.4162H31.3912H31.3662H31.3412H31.3163H31.2913H31.2663H31.2413H31.2164H31.1915H31.1665H31.1416H31.1167H31.0918H31.0669H31.042H31.0171H30.9922H30.9673H30.9425H30.9177H30.8928H30.868H30.8432H30.8184H30.7936H30.7688H30.7441H30.7193H30.6946H30.6698H30.6451H30.6204H30.5957H30.571H30.5463H30.5217H30.497H30.4724H30.4478H30.4232H30.3986H30.374H30.3495H30.3249H30.3004H30.2759H30.2514H30.2269H30.2024H30.178H30.1535H30.1291H30.1047H30.0803H30.0559H30.0316H30.0072H29.9829H29.9586H29.9343H29.91H29.8858H29.8615H29.8373H29.8131H29.7889H29.7648H29.7406H29.7165H29.6924H29.6683H29.6442H29.6202H29.5961H29.5721H29.5481H29.5242H29.5002H29.4763H29.4524H29.4285H29.4046H29.3808H29.3569H29.3331H29.3093H29.2856H29.2618H29.2381H29.2144H29.1908H29.1671H29.1435H29.1199H29.0963H29.0728H29.0492H29.0257H29.0022H28.9788H28.9554H28.9319H28.9086H28.8852H28.8619H28.8386H28.8153H28.792H28.7688H28.7456H28.7224H28.6993H28.6761H28.653H28.63H28.6069H28.5839H28.5609H28.5379H28.515H28.4921H28.4692H28.4464H28.4235H28.4008H28.378H28.3553H28.3325H28.3099H28.2872H28.2646H28.242H28.2195H28.1969H28.1744H28.152H28.1295H28.1071H28.0848H28.0624H28.0401H28.0178H27.9956H27.9734H27.9512H27.929H27.9069H27.8848H27.8628H27.8408H27.8188H27.7968H27.7749H27.753H27.7312H27.7094H27.6876H27.6658H27.6441H27.6224H27.6008H27.5792H27.5576H27.5361H27.5146H27.4931H27.4717H27.4503H27.4289H27.4076H27.3863H27.3651H27.3439H27.3227H27.3016H27.2805H27.2594H27.2384H27.2174H27.1965H27.1756H27.1547H27.1339H27.1131H27.0924H27.0716H27.051H27.0303H27.0098C26.3554 46.35 25.7355 46.0402 25.0818 45.462C24.4219 44.8783 23.8011 44.0886 23.1335 43.2357L23.112 43.2083C22.4693 42.3871 21.7806 41.5072 21.0228 40.837C20.2504 40.1538 19.3344 39.6227 18.2335 39.6227H18.2129H18.1923H18.1717H18.151H18.1303H18.1096H18.0888H18.068H18.0472H18.0263H18.0055H17.9846H17.9636H17.9427H17.9217H17.9007H17.8796H17.8586H17.8375H17.8164H17.7952H17.774H17.7528H17.7316H17.7104H17.6891H17.6678H17.6465H17.6251H17.6037H17.5823H17.5609H17.5395H17.518H17.4965H17.475H17.4535H17.4319H17.4103H17.3887H17.3671H17.3454H17.3238H17.3021H17.2803H17.2586H17.2368H17.2151H17.1933H17.1714H17.1496H17.1277H17.1058H17.0839H17.062H17.0401H17.0181H16.9961H16.9741H16.9521H16.9301H16.908H16.886H16.8639H16.8418H16.8197H16.7975H16.7754H16.7532H16.731H16.7088H16.6866H16.6643H16.6421H16.6198H16.5975H16.5752H16.5529H16.5305H16.5082H16.4858H16.4635H16.4411H16.4187H16.3963H16.3738H16.3514H16.3289H16.3064H16.284H16.2615H16.239H16.2164H16.1939H16.1714H16.1488H16.1262H16.1037H16.0811H16.0585H16.0359H16.0133H15.9906H15.968H15.9453H15.9227H15.9H15.8773H15.8546H15.8319H15.8092H15.7865H15.7638H15.7411H15.7183H15.6956H15.6728H15.6501H15.6273H15.6046H15.5818H15.559H15.5362H15.5134H15.4906H15.4678H15.445H15.4222H15.3993H15.3765H15.3537H15.3308H15.308H15.2851H15.2623H15.2394H15.2166H15.1937H15.1708H15.148H15.1251H15.1022H15.0794H15.0565H15.0336H15.0107H14.9878H14.965H14.9421H14.9192H14.8963H14.8734H14.8505H14.8276H14.8048H14.7819H14.759H14.7361H14.7132H14.6903H14.6675H14.6446H14.6217H14.5988H14.5759H14.5531H14.5302H14.5073H14.4845H14.4616H14.4387H14.4159H14.393H14.3702H14.3473H14.3245H14.3017H14.2788H14.256H14.2332H14.2104H14.1876H14.1648H14.142H14.1192H14.0964H14.0736H14.0508H14.028H14.0053H13.9825H13.9598H13.937H13.9143H13.8916H13.8689H13.8462H13.8235H13.8008H13.7781H13.7554H13.7328H13.7101H13.6875H13.6648H13.6422H13.6196H13.597H13.5744H13.5518H13.5293H13.5067H13.4842H13.4616H13.4391H13.4166H13.3941H13.3716H13.3491H13.3267H13.3042H13.2818H13.2594H13.2369H13.2146H13.1922H13.1698H13.1475H13.1251H13.1028H13.0805H13.0582H13.0359H13.0137H12.9914H12.9692H12.947H12.9248H12.9026H12.8804H12.8583H12.8361H12.814H12.7919H12.7699H12.7478H12.7258H12.7037H12.6817H12.6598H12.6378H12.6158H12.5939H12.572H12.5501H12.5282H12.5064H12.4846H12.4628H12.441H12.4192H12.3975H12.3757H12.354H12.3323H12.3107H12.2891H12.2674H12.2458H12.2243H12.2027H12.1812H12.1597H12.1382H12.1168H12.0953H12.0739H12.0526H12.0312H12.0099H11.9886H11.9673H11.946H11.9248H11.9036H11.8824H11.8612H11.8401H11.819H11.7979H11.7769H11.7559H11.7349H11.7139H11.693H11.672H11.6512H11.6303H11.6095H11.5887H11.5679H11.5472H11.5264H11.5058H11.4851H11.4645H11.4439H11.4233H11.4028H11.3823H11.3618H11.3414H11.321H11.3006H11.2802H11.2599H11.2396H11.2194H11.1992H11.179H11.1588H11.1387H11.1186H11.0986H11.0785H11.0585H11.0386H11.0187H10.9988H10.9789H10.9591H10.9393H10.9196H10.8999H10.8802H10.8605H10.8409H10.8214H10.8018H10.7823H10.7629H10.7434H10.7241H10.7047H10.6854H10.6661H10.6469H10.6277H10.6085H10.5894H10.5703H10.5513H10.5323H10.5133H10.4944H10.4755H10.4566H10.4378H10.4191H10.4003H10.3816H10.363H10.3444H10.3258H10.3073H10.2888H10.2704H10.252H10.2336H10.2153H10.197H10.1788H10.1606H10.1425H10.1244H10.1063H10.0883H10.0703H10.0524H10.0345H10.0167H9.99889H9.98114H9.96344H9.94578H9.92817H9.9106H9.89308H9.87561H9.85818H9.8408H9.82346H9.80617H9.78893H9.77174H9.75459H9.73749H9.72044H9.70344H9.68648H9.66957H9.65272H9.63591H9.61914H9.60243H9.58577H9.56916H9.55259H9.53608H9.51962H9.50321H9.48684H9.47053H9.45427H9.43806H9.4219H9.4058H9.38974H9.37374H9.35779H9.34189H9.32604H9.31025H9.29451H9.27882H9.26318H9.2476H9.23208H9.2166H9.20118H9.18582H9.17051H9.15525H9.14005H9.1249H9.10981H9.09478H9.0798H9.06487H9.05H9.03519H9.02043H9.00574H8.99109H8.97651H8.96198H8.94751H8.9331H8.91874H8.90444H8.8902H8.87602H8.8619H8.84784H8.83383H8.81989H8.806H8.79217H8.77841H8.7647H8.75105H8.73747H8.72394H8.71048H8.69707H8.68373H8.67045H8.65723H8.64407H8.63097H8.61794H8.60496H8.59205H8.57921H8.56642H8.5537H8.54104H8.52845H8.51592H8.50345H8.49105H8.47871H8.46644H8.45423H8.44208H8.43H8.41799H8.40604H8.39416H8.38234H8.37059H8.3589H8.34728H8.33573H8.32424H8.31283H8.30147H8.29019H8.27897H8.26783H8.25675H8.24573H8.23479H8.22391H8.21311H8.20237H8.1917H8.1811H8.17057H8.16011H8.14972H8.1394C7.49627 39.6227 6.68587 39.2278 6.16261 38.49C5.66192 37.7839 5.42286 36.7554 5.93693 35.4684C8.60735 28.7827 13.1028 17.4765 14.0205 14.8386Z" stroke="#F2F2F3" stroke-width="1.3"/>
<path d="M59.0781 59L58.1496 58.6286L59.0781 59ZM65.9648 38.7631C66.1101 38.2303 65.7959 37.6806 65.2631 37.5352C64.7303 37.3899 64.1806 37.7041 64.0352 38.2369L65.9648 38.7631ZM0.0429756 39.79C1.72183 45.3302 5.71588 58.1741 6.10798 59.7425L8.04827 59.2575C7.64037 57.6259 3.6115 44.6698 1.95702 39.21L0.0429756 39.79ZM6.10798 59.7425C6.73996 62.2704 9.71044 65 14.5781 65V63C10.4458 63 8.41629 60.7296 8.04827 59.2575L6.10798 59.7425ZM14.5781 65C14.5869 65 14.5958 65 14.6048 65C14.6138 65 14.6228 65 14.632 65C14.6412 65 14.6505 65 14.6598 65C14.6692 65 14.6787 65 14.6882 65C14.6978 65 14.7075 65 14.7172 65C14.727 65 14.7368 65 14.7467 65C14.7567 65 14.7667 65 14.7769 65C14.787 65 14.7972 65 14.8075 65C14.8179 65 14.8283 65 14.8388 65C14.8493 65 14.8599 65 14.8706 65C14.8813 65 14.8921 65 14.903 65C14.9138 65 14.9248 65 14.9359 65C14.9469 65 14.9581 65 14.9694 65C14.9806 65 14.992 65 15.0034 65C15.0148 65 15.0264 65 15.038 65C15.0496 65 15.0613 65 15.0731 65C15.0849 65 15.0968 65 15.1088 65C15.1208 65 15.1328 65 15.145 65C15.1572 65 15.1694 65 15.1818 65C15.1941 65 15.2065 65 15.2191 65C15.2316 65 15.2442 65 15.2569 65C15.2696 65 15.2824 65 15.2953 65C15.3082 65 15.3211 65 15.3342 65C15.3472 65 15.3604 65 15.3736 65C15.3869 65 15.4002 65 15.4136 65C15.427 65 15.4405 65 15.4541 65C15.4677 65 15.4813 65 15.4951 65C15.5088 65 15.5227 65 15.5366 65C15.5505 65 15.5646 65 15.5787 65C15.5928 65 15.6069 65 15.6212 65C15.6355 65 15.6499 65 15.6643 65C15.6787 65 15.6933 65 15.7079 65C15.7225 65 15.7372 65 15.752 65C15.7668 65 15.7816 65 15.7966 65C15.8115 65 15.8266 65 15.8417 65C15.8568 65 15.872 65 15.8873 65C15.9026 65 15.918 65 15.9334 65C15.9489 65 15.9644 65 15.98 65C15.9956 65 16.0113 65 16.0271 65C16.0429 65 16.0588 65 16.0747 65C16.0906 65 16.1067 65 16.1228 65C16.1389 65 16.1551 65 16.1713 65C16.1876 65 16.204 65 16.2204 65C16.2368 65 16.2533 65 16.2699 65C16.2865 65 16.3032 65 16.3199 65C16.3367 65 16.3535 65 16.3704 65C16.3874 65 16.4043 65 16.4214 65C16.4385 65 16.4556 65 16.4729 65C16.4901 65 16.5074 65 16.5248 65C16.5422 65 16.5596 65 16.5772 65C16.5947 65 16.6123 65 16.63 65C16.6477 65 16.6655 65 16.6833 65C16.7012 65 16.7191 65 16.7371 65C16.7551 65 16.7732 65 16.7913 65C16.8095 65 16.8277 65 16.846 65C16.8643 65 16.8827 65 16.9012 65C16.9196 65 16.9381 65 16.9568 65C16.9754 65 16.994 65 17.0128 65C17.0316 65 17.0504 65 17.0693 65C17.0882 65 17.1072 65 17.1262 65C17.1453 65 17.1644 65 17.1836 65C17.2028 65 17.2221 65 17.2414 65C17.2608 65 17.2802 65 17.2997 65C17.3192 65 17.3388 65 17.3584 65C17.378 65 17.3977 65 17.4175 65C17.4373 65 17.4572 65 17.4771 65C17.497 65 17.517 65 17.5371 65C17.5571 65 17.5773 65 17.5975 65C17.6177 65 17.638 65 17.6583 65C17.6787 65 17.6991 65 17.7196 65C17.7401 65 17.7607 65 17.7813 65C17.8019 65 17.8226 65 17.8434 65C17.8642 65 17.885 65 17.9059 65C17.9268 65 17.9478 65 17.9688 65C17.9899 65 18.011 65 18.0322 65C18.0533 65 18.0746 65 18.0959 65C18.1172 65 18.1386 65 18.16 65C18.1815 65 18.203 65 18.2246 65C18.2462 65 18.2678 65 18.2896 65C18.3113 65 18.3331 65 18.3549 65C18.3768 65 18.3987 65 18.4207 65C18.4426 65 18.4647 65 18.4868 65C18.5089 65 18.5311 65 18.5533 65C18.5756 65 18.5979 65 18.6202 65C18.6426 65 18.665 65 18.6875 65C18.71 65 18.7326 65 18.7552 65C18.7779 65 18.8006 65 18.8233 65C18.8461 65 18.8689 65 18.8918 65C18.9146 65 18.9376 65 18.9606 65C18.9836 65 19.0067 65 19.0298 65C19.0529 65 19.0761 65 19.0994 65C19.1226 65 19.1459 65 19.1693 65C19.1927 65 19.2161 65 19.2396 65C19.2631 65 19.2867 65 19.3103 65C19.3339 65 19.3576 65 19.3814 65C19.4051 65 19.4289 65 19.4528 65C19.4766 65 19.5005 65 19.5245 65C19.5485 65 19.5725 65 19.5966 65C19.6207 65 19.6449 65 19.6691 65C19.6933 65 19.7176 65 19.7419 65C19.7663 65 19.7907 65 19.8151 65C19.8396 65 19.8641 65 19.8886 65C19.9132 65 19.9378 65 19.9625 65C19.9872 65 20.0119 65 20.0367 65C20.0615 65 20.0863 65 20.1112 65C20.1361 65 20.1611 65 20.1861 65C20.2111 65 20.2362 65 20.2613 65C20.2865 65 20.3116 65 20.3369 65C20.3621 65 20.3874 65 20.4128 65C20.4381 65 20.4635 65 20.489 65C20.5144 65 20.5399 65 20.5655 65C20.5911 65 20.6167 65 20.6423 65C20.668 65 20.6937 65 20.7195 65C20.7453 65 20.7711 65 20.797 65C20.8229 65 20.8488 65 20.8748 65C20.9008 65 20.9269 65 20.953 65C20.979 65 21.0052 65 21.0314 65C21.0576 65 21.0838 65 21.1101 65C21.1364 65 21.1628 65 21.1892 65C21.2156 65 21.242 65 21.2685 65C21.295 65 21.3216 65 21.3482 65C21.3748 65 21.4015 65 21.4282 65C21.4549 65 21.4816 65 21.5084 65C21.5352 65 21.5621 65 21.589 65C21.6159 65 21.6428 65 21.6698 65C21.6968 65 21.7238 65 21.7509 65C21.778 65 21.8052 65 21.8324 65C21.8595 65 21.8868 65 21.9141 65C21.9413 65 21.9687 65 21.9961 65C22.0234 65 22.0509 65 22.0783 65C22.1058 65 22.1333 65 22.1609 65C22.1884 65 22.216 65 22.2437 65C22.2714 65 22.299 65 22.3268 65C22.3545 65 22.3823 65 22.4102 65C22.438 65 22.4659 65 22.4938 65C22.5217 65 22.5497 65 22.5777 65C22.6057 65 22.6338 65 22.6619 65C22.69 65 22.7181 65 22.7463 65C22.7745 65 22.8027 65 22.831 65C22.8593 65 22.8876 65 22.916 65C22.9443 65 22.9727 65 23.0012 65C23.0296 65 23.0581 65 23.0866 65C23.1151 65 23.1437 65 23.1723 65C23.2009 65 23.2296 65 23.2583 65C23.287 65 23.3157 65 23.3445 65C23.3733 65 23.4021 65 23.4309 65C23.4598 65 23.4887 65 23.5176 65C23.5466 65 23.5755 65 23.6045 65C23.6336 65 23.6626 65 23.6917 65C23.7208 65 23.7499 65 23.7791 65C23.8083 65 23.8375 65 23.8667 65C23.896 65 23.9253 65 23.9546 65C23.9839 65 24.0133 65 24.0427 65C24.0721 65 24.1015 65 24.131 65C24.1604 65 24.19 65 24.2195 65C24.2491 65 24.2786 65 24.3083 65C24.3379 65 24.3675 65 24.3972 65C24.4269 65 24.4566 65 24.4864 65C24.5162 65 24.546 65 24.5758 65C24.6056 65 24.6355 65 24.6654 65C24.6953 65 24.7252 65 24.7552 65C24.7852 65 24.8152 65 24.8452 65C24.8753 65 24.9054 65 24.9355 65C24.9656 65 24.9957 65 25.0259 65C25.0561 65 25.0863 65 25.1165 65C25.1467 65 25.177 65 25.2073 65C25.2376 65 25.268 65 25.2983 65C25.3287 65 25.3591 65 25.3895 65C25.42 65 25.4504 65 25.4809 65C25.5114 65 25.542 65 25.5725 65C25.6031 65 25.6337 65 25.6643 65C25.6949 65 25.7256 65 25.7562 65C25.7869 65 25.8176 65 25.8484 65C25.8791 65 25.9099 65 25.9407 65C25.9715 65 26.0023 65 26.0332 65C26.064 65 26.0949 65 26.1258 65C26.1567 65 26.1877 65 26.2186 65C26.2496 65 26.2806 65 26.3116 65C26.3427 65 26.3737 65 26.4048 65C26.4359 65 26.467 65 26.4981 65C26.5292 65 26.5604 65 26.5916 65C26.6228 65 26.654 65 26.6852 65C26.7165 65 26.7477 65 26.779 65C26.8103 65 26.8416 65 26.873 65C26.9043 65 26.9357 65 26.9671 65C26.9985 65 27.0299 65 27.0613 65C27.0928 65 27.1243 65 27.1557 65C27.1872 65 27.2188 65 27.2503 65C27.2818 65 27.3134 65 27.345 65C27.3766 65 27.4082 65 27.4398 65C27.4714 65 27.5031 65 27.5348 65C27.5665 65 27.5982 65 27.6299 65C27.6616 65 27.6934 65 27.7251 65C27.7569 65 27.7887 65 27.8205 65C27.8523 65 27.8841 65 27.916 65C27.9478 65 27.9797 65 28.0116 65C28.0435 65 28.0754 65 28.1073 65C28.1393 65 28.1712 65 28.2032 65C28.2352 65 28.2672 65 28.2992 65C28.3312 65 28.3632 65 28.3953 65C28.4273 65 28.4594 65 28.4915 65C28.5236 65 28.5557 65 28.5878 65C28.62 65 28.6521 65 28.6843 65C28.7164 65 28.7486 65 28.7808 65C28.813 65 28.8452 65 28.8775 65C28.9097 65 28.9419 65 28.9742 65C29.0065 65 29.0388 65 29.0711 65C29.1034 65 29.1357 65 29.168 65C29.2003 65 29.2327 65 29.2651 65C29.2974 65 29.3298 65 29.3622 65C29.3946 65 29.427 65 29.4594 65C29.4918 65 29.5243 65 29.5567 65C29.5892 65 29.6217 65 29.6541 65C29.6866 65 29.7191 65 29.7516 65C29.7841 65 29.8167 65 29.8492 65C29.8817 65 29.9143 65 29.9468 65C29.9794 65 30.012 65 30.0446 65C30.0772 65 30.1098 65 30.1424 65C30.175 65 30.2076 65 30.2402 65C30.2729 65 30.3055 65 30.3382 65C30.3708 65 30.4035 65 30.4362 65C30.4689 65 30.5016 65 30.5343 65C30.567 65 30.5997 65 30.6324 65C30.6651 65 30.6978 65 30.7306 65C30.7633 65 30.7961 65 30.8288 65C30.8616 65 30.8944 65 30.9272 65C30.9599 65 30.9927 65 31.0255 65C31.0583 65 31.0911 65 31.1239 65C31.1567 65 31.1896 65 31.2224 65C31.2552 65 31.2881 65 31.3209 65C31.3537 65 31.3866 65 31.4194 65C31.4523 65 31.4852 65 31.518 65C31.5509 65 31.5838 65 31.6167 65C31.6496 65 31.6824 65 31.7153 65C31.7482 65 31.7811 65 31.814 65C31.847 65 31.8799 65 31.9128 65C31.9457 65 31.9786 65 32.0115 65C32.0445 65 32.0774 65 32.1103 65C32.1433 65 32.1762 65 32.2092 65C32.2421 65 32.275 65 32.308 65C32.3409 65 32.3739 65 32.4069 65C32.4398 65 32.4728 65 32.5057 65C32.5387 65 32.5717 65 32.6046 65C32.6376 65 32.6706 65 32.7035 65C32.7365 65 32.7695 65 32.8025 65C32.8354 65 32.8684 65 32.9014 65C32.9344 65 32.9673 65 33.0003 65C33.0333 65 33.0663 65 33.0993 65C33.1322 65 33.1652 65 33.1982 65C33.2312 65 33.2642 65 33.2971 65C33.3301 65 33.3631 65 33.3961 65C33.4291 65 33.462 65 33.495 65C33.528 65 33.561 65 33.5939 65C33.6269 65 33.6599 65 33.6928 65C33.7258 65 33.7588 65 33.7917 65C33.8247 65 33.8577 65 33.8906 65C33.9236 65 33.9565 65 33.9895 65C34.0224 65 34.0554 65 34.0883 65C34.1213 65 34.1542 65 34.1872 65C34.2201 65 34.253 65 34.286 65C34.3189 65 34.3518 65 34.3847 65C34.4177 65 34.4506 65 34.4835 65C34.5164 65 34.5493 65 34.5822 65C34.6151 65 34.648 65 34.6809 65C34.7138 65 34.7467 65 34.7795 65C34.8124 65 34.8453 65 34.8781 65C34.911 65 34.9439 65 34.9767 65C35.0096 65 35.0424 65 35.0752 65C35.1081 65 35.1409 65 35.1737 65C35.2065 65 35.2393 65 35.2721 65C35.3049 65 35.3377 65 35.3705 65C35.4033 65 35.4361 65 35.4689 65C35.5016 65 35.5344 65 35.5671 65C35.5999 65 35.6326 65 35.6653 65C35.6981 65 35.7308 65 35.7635 65C35.7962 65 35.8289 65 35.8616 65C35.8943 65 35.927 65 35.9596 65C35.9923 65 36.025 65 36.0576 65C36.0902 65 36.1229 65 36.1555 65C36.1881 65 36.2207 65 36.2533 65C36.2859 65 36.3185 65 36.3511 65C36.3836 65 36.4162 65 36.4487 65C36.4813 65 36.5138 65 36.5463 65C36.5789 65 36.6114 65 36.6439 65C36.6764 65 36.7088 65 36.7413 65C36.7738 65 36.8062 65 36.8386 65C36.8711 65 36.9035 65 36.9359 65C36.9683 65 37.0007 65 37.0331 65C37.0655 65 37.0978 65 37.1302 65C37.1625 65 37.1948 65 37.2271 65C37.2595 65 37.2918 65 37.324 65C37.3563 65 37.3886 65 37.4208 65C37.4531 65 37.4853 65 37.5175 65C37.5497 65 37.5819 65 37.6141 65C37.6463 65 37.6784 65 37.7106 65C37.7427 65 37.7748 65 37.8069 65C37.839 65 37.8711 65 37.9032 65C37.9353 65 37.9673 65 37.9993 65C38.0314 65 38.0634 65 38.0954 65C38.1274 65 38.1593 65 38.1913 65C38.2232 65 38.2552 65 38.2871 65C38.319 65 38.3509 65 38.3827 65C38.4146 65 38.4464 65 38.4783 65C38.5101 65 38.5419 65 38.5737 65C38.6055 65 38.6372 65 38.669 65C38.7007 65 38.7324 65 38.7641 65C38.7958 65 38.8275 65 38.8591 65C38.8908 65 38.9224 65 38.954 65C38.9856 65 39.0172 65 39.0488 65C39.0803 65 39.1118 65 39.1434 65C39.1749 65 39.2064 65 39.2378 65C39.2693 65 39.3007 65 39.3321 65C39.3635 65 39.3949 65 39.4263 65C39.4576 65 39.489 65 39.5203 65C39.5516 65 39.5829 65 39.6142 65C39.6454 65 39.6766 65 39.7079 65C39.7391 65 39.7702 65 39.8014 65C39.8326 65 39.8637 65 39.8948 65C39.9259 65 39.957 65 39.988 65C40.019 65 40.0501 65 40.0811 65C40.112 65 40.143 65 40.1739 65C40.2049 65 40.2358 65 40.2667 65C40.2975 65 40.3284 65 40.3592 65C40.39 65 40.4208 65 40.4516 65C40.4823 65 40.5131 65 40.5438 65C40.5745 65 40.6051 65 40.6358 65C40.6664 65 40.697 65 40.7276 65C40.7582 65 40.7888 65 40.8193 65C40.8498 65 40.8803 65 40.9107 65C40.9412 65 40.9716 65 41.002 65C41.0324 65 41.0628 65 41.0931 65C41.1234 65 41.1537 65 41.184 65C41.2143 65 41.2445 65 41.2747 65C41.3049 65 41.3351 65 41.3652 65C41.3953 65 41.4254 65 41.4555 65C41.4855 65 41.5156 65 41.5456 65C41.5756 65 41.6055 65 41.6355 65C41.6654 65 41.6953 65 41.7252 65C41.755 65 41.7848 65 41.8146 65C41.8444 65 41.8742 65 41.9039 65C41.9336 65 41.9633 65 41.9929 65C42.0226 65 42.0522 65 42.0818 65C42.1113 65 42.1409 65 42.1704 65C42.1999 65 42.2293 65 42.2588 65C42.2882 65 42.3176 65 42.3469 65C42.3763 65 42.4056 65 42.4349 65C42.4642 65 42.4934 65 42.5226 65C42.5518 65 42.5809 65 42.6101 65C42.6392 65 42.6683 65 42.6973 65C42.7264 65 42.7554 65 42.7843 65C42.8133 65 42.8422 65 42.8711 65C42.9 65 42.9288 65 42.9576 65C42.9864 65 43.0152 65 43.0439 65C43.0727 65 43.1013 65 43.13 65C43.1586 65 43.1872 65 43.2158 65C43.2443 65 43.2729 65 43.3013 65C43.3298 65 43.3582 65 43.3866 65C43.415 65 43.4434 65 43.4717 65C43.5 65 43.5282 65 43.5565 65C43.5847 65 43.6129 65 43.641 65C43.6691 65 43.6972 65 43.7253 65C43.7533 65 43.7813 65 43.8093 65C43.8372 65 43.8651 65 43.893 65C43.9209 65 43.9487 65 43.9765 65C44.0043 65 44.032 65 44.0597 65C44.0874 65 44.115 65 44.1426 65C44.1702 65 44.1978 65 44.2253 65C44.2528 65 44.2802 65 44.3076 65C44.335 65 44.3624 65 44.3897 65C44.417 65 44.4443 65 44.4715 65C44.4988 65 44.5259 65 44.5531 65C44.5802 65 44.6073 65 44.6343 65C44.6613 65 44.6883 65 44.7153 65C44.7422 65 44.7691 65 44.7959 65C44.8228 65 44.8495 65 44.8763 65C44.903 65 44.9297 65 44.9563 65C44.983 65 45.0096 65 45.0361 65C45.0627 65 45.0891 65 45.1156 65C45.142 65 45.1684 65 45.1947 65C45.2211 65 45.2474 65 45.2736 65C45.2998 65 45.326 65 45.3522 65C45.3783 65 45.4044 65 45.4304 65C45.4564 65 45.4824 65 45.5083 65C45.5342 65 45.5601 65 45.5859 65C45.6118 65 45.6375 65 45.6632 65C45.6889 65 45.7146 65 45.7402 65C45.7658 65 45.7914 65 45.8169 65C45.8424 65 45.8678 65 45.8932 65C45.9186 65 45.9439 65 45.9692 65C45.9945 65 46.0197 65 46.0449 65C46.07 65 46.0951 65 46.1202 65C46.1453 65 46.1703 65 46.1952 65C46.2201 65 46.245 65 46.2699 65C46.2947 65 46.3195 65 46.3442 65C46.3689 65 46.3936 65 46.4182 65C46.4428 65 46.4673 65 46.4918 65C46.5163 65 46.5408 65 46.5651 65C46.5895 65 46.6138 65 46.6381 65C46.6624 65 46.6866 65 46.7107 65C46.7348 65 46.7589 65 46.7829 65C46.807 65 46.8309 65 46.8548 65C46.8787 65 46.9026 65 46.9264 65C46.9502 65 46.9739 65 46.9976 65C47.0212 65 47.0448 65 47.0684 65C47.0919 65 47.1154 65 47.1388 65C47.1622 65 47.1856 65 47.2089 65C47.2322 65 47.2554 65 47.2786 65C47.3018 65 47.3249 65 47.348 65C47.371 65 47.394 65 47.4169 65C47.4399 65 47.4627 65 47.4855 65C47.5083 65 47.5311 65 47.5537 65C47.5764 65 47.599 65 47.6216 65C47.6441 65 47.6666 65 47.689 65C47.7114 65 47.7338 65 47.7561 65C47.7784 65 47.8006 65 47.8228 65C47.8449 65 47.867 65 47.889 65C47.9111 65 47.933 65 47.9549 65C47.9768 65 47.9987 65 48.0204 65C48.0422 65 48.0639 65 48.0855 65C48.1072 65 48.1287 65 48.1502 65C48.1717 65 48.1932 65 48.2145 65C48.2359 65 48.2572 65 48.2784 65C48.2997 65 48.3208 65 48.3419 65C48.363 65 48.384 65 48.405 65C48.4259 65 48.4468 65 48.4677 65C48.4885 65 48.5092 65 48.5299 65C48.5506 65 48.5712 65 48.5917 65C48.6123 65 48.6328 65 48.6532 65C48.6736 65 48.6939 65 48.7142 65C48.7344 65 48.7546 65 48.7747 65C48.7949 65 48.8149 65 48.8349 65C48.8549 65 48.8748 65 48.8946 65C48.9144 65 48.9342 65 48.9539 65C48.9736 65 48.9932 65 49.0128 65C49.0323 65 49.0518 65 49.0712 65C49.0906 65 49.1099 65 49.1292 65C49.1484 65 49.1676 65 49.1867 65C49.2058 65 49.2249 65 49.2438 65C49.2628 65 49.2817 65 49.3005 65C49.3193 65 49.338 65 49.3567 65C49.3754 65 49.3939 65 49.4125 65C49.431 65 49.4494 65 49.4678 65C49.4861 65 49.5044 65 49.5226 65C49.5408 65 49.559 65 49.577 65C49.5951 65 49.6131 65 49.631 65C49.6489 65 49.6667 65 49.6845 65C49.7022 65 49.7199 65 49.7375 65C49.7551 65 49.7726 65 49.79 65C49.8075 65 49.8248 65 49.8421 65C49.8594 65 49.8766 65 49.8937 65C49.9109 65 49.9279 65 49.9449 65C49.9619 65 49.9788 65 49.9956 65C50.0124 65 50.0291 65 50.0458 65C50.0624 65 50.079 65 50.0955 65C50.112 65 50.1284 65 50.1447 65C50.161 65 50.1773 65 50.1934 65C50.2096 65 50.2257 65 50.2417 65C50.2577 65 50.2736 65 50.2895 65C50.3053 65 50.3211 65 50.3368 65C50.3524 65 50.368 65 50.3836 65C50.3991 65 50.4145 65 50.4298 65C50.4452 65 50.4605 65 50.4756 65C50.4908 65 50.5059 65 50.5209 65C50.5359 65 50.5509 65 50.5657 65C50.5806 65 50.5953 65 50.61 65C50.6247 65 50.6393 65 50.6538 65C50.6683 65 50.6827 65 50.697 65C50.7114 65 50.7256 65 50.7398 65C50.754 65 50.768 65 50.782 65C50.796 65 50.8099 65 50.8238 65C50.8376 65 50.8513 65 50.865 65C50.8786 65 50.8922 65 50.9056 65C50.9191 65 50.9325 65 50.9458 65C50.9591 65 50.9723 65 50.9854 65C50.9986 65 51.0116 65 51.0245 65C51.0375 65 51.0503 65 51.0631 65C51.0759 65 51.0886 65 51.1011 65C51.1137 65 51.1262 65 51.1386 65C51.1511 65 51.1634 65 51.1756 65C51.1878 65 51.2 65 51.212 65C51.2241 65 51.236 65 51.2479 65C51.2598 65 51.2716 65 51.2833 65C51.2949 65 51.3065 65 51.318 65C51.3295 65 51.341 65 51.3523 65C51.3636 65 51.3748 65 51.386 65C51.3971 65 51.4081 65 51.4191 65C51.43 65 51.4409 65 51.4517 65C51.4624 65 51.4731 65 51.4837 65C51.4943 65 51.5047 65 51.5151 65C51.5255 65 51.5358 65 51.546 65C51.5562 65 51.5663 65 51.5763 65C51.5864 65 51.5963 65 51.6061 65C51.6159 65 51.6256 65 51.6353 65C51.6449 65 51.6544 65 51.6639 65C51.6733 65 51.6827 65 51.6919 65C51.7012 65 51.7103 65 51.7194 65C51.7284 65 51.7374 65 51.7463 65C51.7551 65 51.7639 65 51.7725 65C51.7812 65 51.7898 65 51.7982 65C51.8067 65 51.8151 65 51.8234 65C51.8316 65 51.8398 65 51.8479 65C51.856 65 51.864 65 51.8718 65C51.8797 65 51.8875 65 51.8952 65C51.9029 65 51.9104 65 51.9179 65C51.9254 65 51.9328 65 51.9401 65C51.9474 65 51.9545 65 51.9616 65C51.9687 65 51.9757 65 51.9826 65C51.9894 65 51.9962 65 52.0029 65C52.0096 65 52.0161 65 52.0226 65C52.0291 65 52.0355 65 52.0417 65C52.048 65 52.0542 65 52.0602 65C52.0663 65 52.0723 65 52.0781 65V63C52.0723 63 52.0663 63 52.0602 63C52.0542 63 52.048 63 52.0417 63C52.0355 63 52.0291 63 52.0226 63C52.0161 63 52.0096 63 52.0029 63C51.9962 63 51.9894 63 51.9826 63C51.9757 63 51.9687 63 51.9616 63C51.9545 63 51.9474 63 51.9401 63C51.9328 63 51.9254 63 51.9179 63C51.9104 63 51.9029 63 51.8952 63C51.8875 63 51.8797 63 51.8718 63C51.864 63 51.856 63 51.8479 63C51.8398 63 51.8316 63 51.8234 63C51.8151 63 51.8067 63 51.7982 63C51.7898 63 51.7812 63 51.7725 63C51.7639 63 51.7551 63 51.7463 63C51.7374 63 51.7284 63 51.7194 63C51.7103 63 51.7012 63 51.6919 63C51.6827 63 51.6733 63 51.6639 63C51.6544 63 51.6449 63 51.6353 63C51.6256 63 51.6159 63 51.6061 63C51.5963 63 51.5864 63 51.5763 63C51.5663 63 51.5562 63 51.546 63C51.5358 63 51.5255 63 51.5151 63C51.5047 63 51.4943 63 51.4837 63C51.4731 63 51.4624 63 51.4517 63C51.4409 63 51.43 63 51.4191 63C51.4081 63 51.3971 63 51.386 63C51.3748 63 51.3636 63 51.3523 63C51.341 63 51.3295 63 51.318 63C51.3065 63 51.2949 63 51.2833 63C51.2716 63 51.2598 63 51.2479 63C51.236 63 51.2241 63 51.212 63C51.2 63 51.1878 63 51.1756 63C51.1634 63 51.1511 63 51.1386 63C51.1262 63 51.1137 63 51.1011 63C51.0886 63 51.0759 63 51.0631 63C51.0503 63 51.0375 63 51.0245 63C51.0116 63 50.9986 63 50.9854 63C50.9723 63 50.9591 63 50.9458 63C50.9325 63 50.9191 63 50.9056 63C50.8922 63 50.8786 63 50.865 63C50.8513 63 50.8376 63 50.8238 63C50.8099 63 50.796 63 50.782 63C50.768 63 50.754 63 50.7398 63C50.7256 63 50.7114 63 50.697 63C50.6827 63 50.6683 63 50.6538 63C50.6393 63 50.6247 63 50.61 63C50.5953 63 50.5806 63 50.5657 63C50.5509 63 50.5359 63 50.5209 63C50.5059 63 50.4908 63 50.4756 63C50.4605 63 50.4452 63 50.4298 63C50.4145 63 50.3991 63 50.3836 63C50.368 63 50.3524 63 50.3368 63C50.3211 63 50.3053 63 50.2895 63C50.2736 63 50.2577 63 50.2417 63C50.2257 63 50.2096 63 50.1934 63C50.1773 63 50.161 63 50.1447 63C50.1284 63 50.112 63 50.0955 63C50.079 63 50.0624 63 50.0458 63C50.0291 63 50.0124 63 49.9956 63C49.9788 63 49.9619 63 49.9449 63C49.9279 63 49.9109 63 49.8937 63C49.8766 63 49.8594 63 49.8421 63C49.8248 63 49.8075 63 49.79 63C49.7726 63 49.7551 63 49.7375 63C49.7199 63 49.7022 63 49.6845 63C49.6667 63 49.6489 63 49.631 63C49.6131 63 49.5951 63 49.577 63C49.559 63 49.5408 63 49.5226 63C49.5044 63 49.4861 63 49.4678 63C49.4494 63 49.431 63 49.4125 63C49.3939 63 49.3754 63 49.3567 63C49.338 63 49.3193 63 49.3005 63C49.2817 63 49.2628 63 49.2438 63C49.2249 63 49.2058 63 49.1867 63C49.1676 63 49.1484 63 49.1292 63C49.1099 63 49.0906 63 49.0712 63C49.0518 63 49.0323 63 49.0128 63C48.9932 63 48.9736 63 48.9539 63C48.9342 63 48.9144 63 48.8946 63C48.8748 63 48.8549 63 48.8349 63C48.8149 63 48.7949 63 48.7747 63C48.7546 63 48.7344 63 48.7142 63C48.6939 63 48.6736 63 48.6532 63C48.6328 63 48.6123 63 48.5917 63C48.5712 63 48.5506 63 48.5299 63C48.5092 63 48.4885 63 48.4677 63C48.4468 63 48.4259 63 48.405 63C48.384 63 48.363 63 48.3419 63C48.3208 63 48.2997 63 48.2784 63C48.2572 63 48.2359 63 48.2145 63C48.1932 63 48.1717 63 48.1502 63C48.1287 63 48.1072 63 48.0855 63C48.0639 63 48.0422 63 48.0204 63C47.9987 63 47.9768 63 47.9549 63C47.933 63 47.9111 63 47.889 63C47.867 63 47.8449 63 47.8228 63C47.8006 63 47.7784 63 47.7561 63C47.7338 63 47.7114 63 47.689 63C47.6666 63 47.6441 63 47.6216 63C47.599 63 47.5764 63 47.5537 63C47.5311 63 47.5083 63 47.4855 63C47.4627 63 47.4399 63 47.4169 63C47.394 63 47.371 63 47.348 63C47.3249 63 47.3018 63 47.2786 63C47.2554 63 47.2322 63 47.2089 63C47.1856 63 47.1622 63 47.1388 63C47.1154 63 47.0919 63 47.0684 63C47.0448 63 47.0212 63 46.9976 63C46.9739 63 46.9502 63 46.9264 63C46.9026 63 46.8787 63 46.8548 63C46.8309 63 46.807 63 46.7829 63C46.7589 63 46.7348 63 46.7107 63C46.6866 63 46.6624 63 46.6381 63C46.6138 63 46.5895 63 46.5651 63C46.5408 63 46.5163 63 46.4918 63C46.4673 63 46.4428 63 46.4182 63C46.3936 63 46.3689 63 46.3442 63C46.3195 63 46.2947 63 46.2699 63C46.245 63 46.2201 63 46.1952 63C46.1703 63 46.1453 63 46.1202 63C46.0951 63 46.07 63 46.0449 63C46.0197 63 45.9945 63 45.9692 63C45.9439 63 45.9186 63 45.8932 63C45.8678 63 45.8424 63 45.8169 63C45.7914 63 45.7658 63 45.7402 63C45.7146 63 45.6889 63 45.6632 63C45.6375 63 45.6118 63 45.5859 63C45.5601 63 45.5342 63 45.5083 63C45.4824 63 45.4564 63 45.4304 63C45.4044 63 45.3783 63 45.3522 63C45.326 63 45.2998 63 45.2736 63C45.2474 63 45.2211 63 45.1947 63C45.1684 63 45.142 63 45.1156 63C45.0891 63 45.0627 63 45.0361 63C45.0096 63 44.983 63 44.9563 63C44.9297 63 44.903 63 44.8763 63C44.8495 63 44.8228 63 44.7959 63C44.7691 63 44.7422 63 44.7153 63C44.6883 63 44.6613 63 44.6343 63C44.6073 63 44.5802 63 44.5531 63C44.5259 63 44.4988 63 44.4715 63C44.4443 63 44.417 63 44.3897 63C44.3624 63 44.335 63 44.3076 63C44.2802 63 44.2528 63 44.2253 63C44.1978 63 44.1702 63 44.1426 63C44.115 63 44.0874 63 44.0597 63C44.032 63 44.0043 63 43.9765 63C43.9487 63 43.9209 63 43.893 63C43.8651 63 43.8372 63 43.8093 63C43.7813 63 43.7533 63 43.7253 63C43.6972 63 43.6691 63 43.641 63C43.6129 63 43.5847 63 43.5565 63C43.5282 63 43.5 63 43.4717 63C43.4434 63 43.415 63 43.3866 63C43.3582 63 43.3298 63 43.3013 63C43.2729 63 43.2443 63 43.2158 63C43.1872 63 43.1586 63 43.13 63C43.1013 63 43.0727 63 43.0439 63C43.0152 63 42.9864 63 42.9576 63C42.9288 63 42.9 63 42.8711 63C42.8422 63 42.8133 63 42.7843 63C42.7554 63 42.7264 63 42.6973 63C42.6683 63 42.6392 63 42.6101 63C42.5809 63 42.5518 63 42.5226 63C42.4934 63 42.4642 63 42.4349 63C42.4056 63 42.3763 63 42.3469 63C42.3176 63 42.2882 63 42.2588 63C42.2293 63 42.1999 63 42.1704 63C42.1409 63 42.1113 63 42.0818 63C42.0522 63 42.0226 63 41.9929 63C41.9633 63 41.9336 63 41.9039 63C41.8742 63 41.8444 63 41.8146 63C41.7848 63 41.755 63 41.7252 63C41.6953 63 41.6654 63 41.6355 63C41.6055 63 41.5756 63 41.5456 63C41.5156 63 41.4855 63 41.4555 63C41.4254 63 41.3953 63 41.3652 63C41.3351 63 41.3049 63 41.2747 63C41.2445 63 41.2143 63 41.184 63C41.1537 63 41.1234 63 41.0931 63C41.0628 63 41.0324 63 41.002 63C40.9716 63 40.9412 63 40.9107 63C40.8803 63 40.8498 63 40.8193 63C40.7888 63 40.7582 63 40.7276 63C40.697 63 40.6664 63 40.6358 63C40.6051 63 40.5745 63 40.5438 63C40.5131 63 40.4823 63 40.4516 63C40.4208 63 40.39 63 40.3592 63C40.3284 63 40.2975 63 40.2667 63C40.2358 63 40.2049 63 40.1739 63C40.143 63 40.112 63 40.0811 63C40.0501 63 40.019 63 39.988 63C39.957 63 39.9259 63 39.8948 63C39.8637 63 39.8326 63 39.8014 63C39.7702 63 39.7391 63 39.7079 63C39.6766 63 39.6454 63 39.6142 63C39.5829 63 39.5516 63 39.5203 63C39.489 63 39.4576 63 39.4263 63C39.3949 63 39.3635 63 39.3321 63C39.3007 63 39.2693 63 39.2378 63C39.2064 63 39.1749 63 39.1434 63C39.1118 63 39.0803 63 39.0488 63C39.0172 63 38.9856 63 38.954 63C38.9224 63 38.8908 63 38.8591 63C38.8275 63 38.7958 63 38.7641 63C38.7324 63 38.7007 63 38.669 63C38.6372 63 38.6055 63 38.5737 63C38.5419 63 38.5101 63 38.4783 63C38.4464 63 38.4146 63 38.3827 63C38.3509 63 38.319 63 38.2871 63C38.2552 63 38.2232 63 38.1913 63C38.1593 63 38.1274 63 38.0954 63C38.0634 63 38.0314 63 37.9993 63C37.9673 63 37.9353 63 37.9032 63C37.8711 63 37.839 63 37.8069 63C37.7748 63 37.7427 63 37.7106 63C37.6784 63 37.6463 63 37.6141 63C37.5819 63 37.5497 63 37.5175 63C37.4853 63 37.4531 63 37.4208 63C37.3886 63 37.3563 63 37.324 63C37.2918 63 37.2595 63 37.2271 63C37.1948 63 37.1625 63 37.1302 63C37.0978 63 37.0655 63 37.0331 63C37.0007 63 36.9683 63 36.9359 63C36.9035 63 36.8711 63 36.8386 63C36.8062 63 36.7738 63 36.7413 63C36.7088 63 36.6764 63 36.6439 63C36.6114 63 36.5789 63 36.5463 63C36.5138 63 36.4813 63 36.4487 63C36.4162 63 36.3836 63 36.3511 63C36.3185 63 36.2859 63 36.2533 63C36.2207 63 36.1881 63 36.1555 63C36.1229 63 36.0902 63 36.0576 63C36.025 63 35.9923 63 35.9596 63C35.927 63 35.8943 63 35.8616 63C35.8289 63 35.7962 63 35.7635 63C35.7308 63 35.6981 63 35.6653 63C35.6326 63 35.5999 63 35.5671 63C35.5344 63 35.5016 63 35.4689 63C35.4361 63 35.4033 63 35.3705 63C35.3377 63 35.3049 63 35.2721 63C35.2393 63 35.2065 63 35.1737 63C35.1409 63 35.1081 63 35.0752 63C35.0424 63 35.0096 63 34.9767 63C34.9439 63 34.911 63 34.8781 63C34.8453 63 34.8124 63 34.7795 63C34.7467 63 34.7138 63 34.6809 63C34.648 63 34.6151 63 34.5822 63C34.5493 63 34.5164 63 34.4835 63C34.4506 63 34.4177 63 34.3847 63C34.3518 63 34.3189 63 34.286 63C34.253 63 34.2201 63 34.1872 63C34.1542 63 34.1213 63 34.0883 63C34.0554 63 34.0224 63 33.9895 63C33.9565 63 33.9236 63 33.8906 63C33.8577 63 33.8247 63 33.7917 63C33.7588 63 33.7258 63 33.6928 63C33.6599 63 33.6269 63 33.5939 63C33.561 63 33.528 63 33.495 63C33.462 63 33.4291 63 33.3961 63C33.3631 63 33.3301 63 33.2971 63C33.2642 63 33.2312 63 33.1982 63C33.1652 63 33.1322 63 33.0993 63C33.0663 63 33.0333 63 33.0003 63C32.9673 63 32.9344 63 32.9014 63C32.8684 63 32.8354 63 32.8025 63C32.7695 63 32.7365 63 32.7035 63C32.6706 63 32.6376 63 32.6046 63C32.5717 63 32.5387 63 32.5057 63C32.4728 63 32.4398 63 32.4069 63C32.3739 63 32.3409 63 32.308 63C32.275 63 32.2421 63 32.2092 63C32.1762 63 32.1433 63 32.1103 63C32.0774 63 32.0445 63 32.0115 63C31.9786 63 31.9457 63 31.9128 63C31.8799 63 31.847 63 31.814 63C31.7811 63 31.7482 63 31.7153 63C31.6824 63 31.6496 63 31.6167 63C31.5838 63 31.5509 63 31.518 63C31.4852 63 31.4523 63 31.4194 63C31.3866 63 31.3537 63 31.3209 63C31.2881 63 31.2552 63 31.2224 63C31.1896 63 31.1567 63 31.1239 63C31.0911 63 31.0583 63 31.0255 63C30.9927 63 30.9599 63 30.9272 63C30.8944 63 30.8616 63 30.8288 63C30.7961 63 30.7633 63 30.7306 63C30.6978 63 30.6651 63 30.6324 63C30.5997 63 30.567 63 30.5343 63C30.5016 63 30.4689 63 30.4362 63C30.4035 63 30.3708 63 30.3382 63C30.3055 63 30.2729 63 30.2402 63C30.2076 63 30.175 63 30.1424 63C30.1098 63 30.0772 63 30.0446 63C30.012 63 29.9794 63 29.9468 63C29.9143 63 29.8817 63 29.8492 63C29.8167 63 29.7841 63 29.7516 63C29.7191 63 29.6866 63 29.6541 63C29.6217 63 29.5892 63 29.5567 63C29.5243 63 29.4918 63 29.4594 63C29.427 63 29.3946 63 29.3622 63C29.3298 63 29.2974 63 29.2651 63C29.2327 63 29.2003 63 29.168 63C29.1357 63 29.1034 63 29.0711 63C29.0388 63 29.0065 63 28.9742 63C28.9419 63 28.9097 63 28.8775 63C28.8452 63 28.813 63 28.7808 63C28.7486 63 28.7164 63 28.6843 63C28.6521 63 28.62 63 28.5878 63C28.5557 63 28.5236 63 28.4915 63C28.4594 63 28.4273 63 28.3953 63C28.3632 63 28.3312 63 28.2992 63C28.2672 63 28.2352 63 28.2032 63C28.1712 63 28.1393 63 28.1073 63C28.0754 63 28.0435 63 28.0116 63C27.9797 63 27.9478 63 27.916 63C27.8841 63 27.8523 63 27.8205 63C27.7887 63 27.7569 63 27.7251 63C27.6934 63 27.6616 63 27.6299 63C27.5982 63 27.5665 63 27.5348 63C27.5031 63 27.4714 63 27.4398 63C27.4082 63 27.3766 63 27.345 63C27.3134 63 27.2818 63 27.2503 63C27.2188 63 27.1872 63 27.1557 63C27.1243 63 27.0928 63 27.0613 63C27.0299 63 26.9985 63 26.9671 63C26.9357 63 26.9043 63 26.873 63C26.8416 63 26.8103 63 26.779 63C26.7477 63 26.7165 63 26.6852 63C26.654 63 26.6228 63 26.5916 63C26.5604 63 26.5292 63 26.4981 63C26.467 63 26.4359 63 26.4048 63C26.3737 63 26.3427 63 26.3116 63C26.2806 63 26.2496 63 26.2186 63C26.1877 63 26.1567 63 26.1258 63C26.0949 63 26.064 63 26.0332 63C26.0023 63 25.9715 63 25.9407 63C25.9099 63 25.8791 63 25.8484 63C25.8176 63 25.7869 63 25.7562 63C25.7256 63 25.6949 63 25.6643 63C25.6337 63 25.6031 63 25.5725 63C25.542 63 25.5114 63 25.4809 63C25.4504 63 25.42 63 25.3895 63C25.3591 63 25.3287 63 25.2983 63C25.268 63 25.2376 63 25.2073 63C25.177 63 25.1467 63 25.1165 63C25.0863 63 25.0561 63 25.0259 63C24.9957 63 24.9656 63 24.9355 63C24.9054 63 24.8753 63 24.8452 63C24.8152 63 24.7852 63 24.7552 63C24.7252 63 24.6953 63 24.6654 63C24.6355 63 24.6056 63 24.5758 63C24.546 63 24.5162 63 24.4864 63C24.4566 63 24.4269 63 24.3972 63C24.3675 63 24.3379 63 24.3083 63C24.2786 63 24.2491 63 24.2195 63C24.19 63 24.1604 63 24.131 63C24.1015 63 24.0721 63 24.0427 63C24.0133 63 23.9839 63 23.9546 63C23.9253 63 23.896 63 23.8667 63C23.8375 63 23.8083 63 23.7791 63C23.7499 63 23.7208 63 23.6917 63C23.6626 63 23.6336 63 23.6045 63C23.5755 63 23.5466 63 23.5176 63C23.4887 63 23.4598 63 23.4309 63C23.4021 63 23.3733 63 23.3445 63C23.3157 63 23.287 63 23.2583 63C23.2296 63 23.2009 63 23.1723 63C23.1437 63 23.1151 63 23.0866 63C23.0581 63 23.0296 63 23.0012 63C22.9727 63 22.9443 63 22.916 63C22.8876 63 22.8593 63 22.831 63C22.8027 63 22.7745 63 22.7463 63C22.7181 63 22.69 63 22.6619 63C22.6338 63 22.6057 63 22.5777 63C22.5497 63 22.5217 63 22.4938 63C22.4659 63 22.438 63 22.4102 63C22.3823 63 22.3545 63 22.3268 63C22.299 63 22.2714 63 22.2437 63C22.216 63 22.1884 63 22.1609 63C22.1333 63 22.1058 63 22.0783 63C22.0509 63 22.0234 63 21.9961 63C21.9687 63 21.9413 63 21.9141 63C21.8868 63 21.8595 63 21.8324 63C21.8052 63 21.778 63 21.7509 63C21.7238 63 21.6968 63 21.6698 63C21.6428 63 21.6159 63 21.589 63C21.5621 63 21.5352 63 21.5084 63C21.4816 63 21.4549 63 21.4282 63C21.4015 63 21.3748 63 21.3482 63C21.3216 63 21.295 63 21.2685 63C21.242 63 21.2156 63 21.1892 63C21.1628 63 21.1364 63 21.1101 63C21.0838 63 21.0576 63 21.0314 63C21.0052 63 20.979 63 20.953 63C20.9269 63 20.9008 63 20.8748 63C20.8488 63 20.8229 63 20.797 63C20.7711 63 20.7453 63 20.7195 63C20.6937 63 20.668 63 20.6423 63C20.6167 63 20.5911 63 20.5655 63C20.5399 63 20.5144 63 20.489 63C20.4635 63 20.4381 63 20.4128 63C20.3874 63 20.3621 63 20.3369 63C20.3116 63 20.2865 63 20.2613 63C20.2362 63 20.2111 63 20.1861 63C20.1611 63 20.1361 63 20.1112 63C20.0863 63 20.0615 63 20.0367 63C20.0119 63 19.9872 63 19.9625 63C19.9378 63 19.9132 63 19.8886 63C19.8641 63 19.8396 63 19.8151 63C19.7907 63 19.7663 63 19.7419 63C19.7176 63 19.6933 63 19.6691 63C19.6449 63 19.6207 63 19.5966 63C19.5725 63 19.5485 63 19.5245 63C19.5005 63 19.4766 63 19.4528 63C19.4289 63 19.4051 63 19.3814 63C19.3576 63 19.3339 63 19.3103 63C19.2867 63 19.2631 63 19.2396 63C19.2161 63 19.1927 63 19.1693 63C19.1459 63 19.1226 63 19.0994 63C19.0761 63 19.0529 63 19.0298 63C19.0067 63 18.9836 63 18.9606 63C18.9376 63 18.9146 63 18.8918 63C18.8689 63 18.8461 63 18.8233 63C18.8006 63 18.7779 63 18.7552 63C18.7326 63 18.71 63 18.6875 63C18.665 63 18.6426 63 18.6202 63C18.5979 63 18.5756 63 18.5533 63C18.5311 63 18.5089 63 18.4868 63C18.4647 63 18.4426 63 18.4207 63C18.3987 63 18.3768 63 18.3549 63C18.3331 63 18.3113 63 18.2896 63C18.2678 63 18.2462 63 18.2246 63C18.203 63 18.1815 63 18.16 63C18.1386 63 18.1172 63 18.0959 63C18.0746 63 18.0533 63 18.0322 63C18.011 63 17.9899 63 17.9688 63C17.9478 63 17.9268 63 17.9059 63C17.885 63 17.8642 63 17.8434 63C17.8226 63 17.8019 63 17.7813 63C17.7607 63 17.7401 63 17.7196 63C17.6991 63 17.6787 63 17.6583 63C17.638 63 17.6177 63 17.5975 63C17.5773 63 17.5571 63 17.5371 63C17.517 63 17.497 63 17.4771 63C17.4572 63 17.4373 63 17.4175 63C17.3977 63 17.378 63 17.3584 63C17.3388 63 17.3192 63 17.2997 63C17.2802 63 17.2608 63 17.2414 63C17.2221 63 17.2028 63 17.1836 63C17.1644 63 17.1453 63 17.1262 63C17.1072 63 17.0882 63 17.0693 63C17.0504 63 17.0316 63 17.0128 63C16.994 63 16.9754 63 16.9568 63C16.9381 63 16.9196 63 16.9012 63C16.8827 63 16.8643 63 16.846 63C16.8277 63 16.8095 63 16.7913 63C16.7732 63 16.7551 63 16.7371 63C16.7191 63 16.7012 63 16.6833 63C16.6655 63 16.6477 63 16.63 63C16.6123 63 16.5947 63 16.5772 63C16.5596 63 16.5422 63 16.5248 63C16.5074 63 16.4901 63 16.4729 63C16.4556 63 16.4385 63 16.4214 63C16.4043 63 16.3874 63 16.3704 63C16.3535 63 16.3367 63 16.3199 63C16.3032 63 16.2865 63 16.2699 63C16.2533 63 16.2368 63 16.2204 63C16.204 63 16.1876 63 16.1713 63C16.1551 63 16.1389 63 16.1228 63C16.1067 63 16.0906 63 16.0747 63C16.0588 63 16.0429 63 16.0271 63C16.0113 63 15.9956 63 15.98 63C15.9644 63 15.9489 63 15.9334 63C15.918 63 15.9026 63 15.8873 63C15.872 63 15.8568 63 15.8417 63C15.8266 63 15.8115 63 15.7966 63C15.7816 63 15.7668 63 15.752 63C15.7372 63 15.7225 63 15.7079 63C15.6933 63 15.6787 63 15.6643 63C15.6499 63 15.6355 63 15.6212 63C15.6069 63 15.5928 63 15.5787 63C15.5646 63 15.5505 63 15.5366 63C15.5227 63 15.5088 63 15.4951 63C15.4813 63 15.4677 63 15.4541 63C15.4405 63 15.427 63 15.4136 63C15.4002 63 15.3869 63 15.3736 63C15.3604 63 15.3472 63 15.3342 63C15.3211 63 15.3082 63 15.2953 63C15.2824 63 15.2696 63 15.2569 63C15.2442 63 15.2316 63 15.2191 63C15.2065 63 15.1941 63 15.1818 63C15.1694 63 15.1572 63 15.145 63C15.1328 63 15.1208 63 15.1088 63C15.0968 63 15.0849 63 15.0731 63C15.0613 63 15.0496 63 15.038 63C15.0264 63 15.0148 63 15.0034 63C14.992 63 14.9806 63 14.9694 63C14.9581 63 14.9469 63 14.9359 63C14.9248 63 14.9138 63 14.903 63C14.8921 63 14.8813 63 14.8706 63C14.8599 63 14.8493 63 14.8388 63C14.8283 63 14.8179 63 14.8075 63C14.7972 63 14.787 63 14.7769 63C14.7667 63 14.7567 63 14.7467 63C14.7368 63 14.727 63 14.7172 63C14.7075 63 14.6978 63 14.6882 63C14.6787 63 14.6692 63 14.6598 63C14.6505 63 14.6412 63 14.632 63C14.6228 63 14.6138 63 14.6048 63C14.5958 63 14.5869 63 14.5781 63V65ZM52.0781 65C53.8495 65 55.5549 64.2674 56.9281 63.2375C58.3009 62.2079 59.4282 60.8175 60.0066 59.3714L58.1496 58.6286C57.7281 59.6825 56.8553 60.7921 55.7281 61.6375C54.6013 62.4826 53.3067 63 52.0781 63V65ZM60.0066 59.3714C60.4312 58.3099 61.5548 54.4908 62.7383 50.3365C63.9325 46.1447 65.214 41.516 65.9648 38.7631L64.0352 38.2369C63.286 40.984 62.0066 45.6053 60.8148 49.7885C59.6124 54.0092 58.525 57.6901 58.1496 58.6286L60.0066 59.3714Z" fill="#E0E0E3"/>
<circle cx="53.0781" cy="7.5" r="6.5" fill="#E0E0E3" stroke="white" stroke-width="2"/>
</svg>
