<svg width="57" height="43" viewBox="0 0 57 43" fill="none" xmlns="http://www.w3.org/2000/svg">
<path d="M26 21.2632L31.0526 28L42 12" stroke="#E0E0E3" stroke-width="2.8" stroke-linecap="round" stroke-linejoin="round"/>
<path fill-rule="evenodd" clip-rule="evenodd" d="M52 3H16C16 3 16.5143 0 18.0571 0C19.6 0 47.8857 0 49.9429 0C52 0 52 3 52 3Z" fill="#E0E0E3"/>
<path fill-rule="evenodd" clip-rule="evenodd" d="M11.5 43C17.8516 43 23 37.8516 23 31.5C23 25.1484 17.8516 20 11.5 20C5.14844 20 0 25.1484 0 31.5C0 37.8516 5.14844 43 11.5 43ZM12.3984 26C12.3984 25.5029 11.9961 25.0996 11.5 25.0996C11.0039 25.0996 10.6016 25.5029 10.6016 26V30.5996H6C5.50391 30.5996 5.10156 31.0029 5.10156 31.5C5.10156 31.9971 5.50391 32.4004 6 32.4004H10.6016V37C10.6016 37.4971 11.0039 37.9004 11.5 37.9004C11.9961 37.9004 12.3984 37.4971 12.3984 37V32.4004H17C17.4961 32.4004 17.8984 31.9971 17.8984 31.5C17.8984 31.0029 17.4961 30.5996 17 30.5996H12.3984V26Z" fill="#E0E0E3"/>
<path fill-rule="evenodd" clip-rule="evenodd" d="M16 7.5H51C52.933 7.5 54.5 9.067 54.5 11V31C54.5 32.933 52.933 34.5 51 34.5H24.6655C24.4685 35.3681 24.1879 36.2044 23.8325 37H51C54.3137 37 57 34.3137 57 31V11C57 7.68629 54.3137 5 51 5H16C12.6863 5 10 7.68629 10 11V18.0824C10.4925 18.0279 10.993 18 11.5 18C11.8363 18 12.1698 18.0123 12.5 18.0365V11C12.5 9.067 14.067 7.5 16 7.5Z" fill="#E0E0E3"/>
</svg>
